<?xml version="1.0" encoding="utf-8"?>
<!-- Generator: Adobe Illustrator 24.1.1, SVG Export Plug-In . SVG Version: 6.00 Build 0)  -->
<svg version="1.1" id="Layer_1" xmlns="http://www.w3.org/2000/svg" xmlns:xlink="http://www.w3.org/1999/xlink" x="0px" y="0px"
	 viewBox="0 0 48 60" style="enable-background:new 0 0 48 60;" xml:space="preserve">
<g>
	<path d="M41,0H11c-0.6,0-1,0.4-1,1v3H7C6.4,4,6,4.4,6,5v42c0,0.6,0.4,1,1,1h30c0.6,0,1-0.4,1-1v-3h3c0.6,0,1-0.4,1-1V1
		C42,0.4,41.6,0,41,0z M36,46H8V6h20v7c0,0.6,0.4,1,1,1h7V46z M30,7.4l4.6,4.6H30V7.4z M40,42h-2c0-31,0.1-29.3-0.3-29.7
		C29.1,3.7,29.6,4,29.1,4C28.8,4,27,4,12,4V2h28V42z"/>
	<path d="M32,22H12c-0.6,0-1,0.4-1,1s0.4,1,1,1h20c0.6,0,1-0.4,1-1S32.6,22,32,22z"/>
	<path d="M32,17H12c-0.6,0-1,0.4-1,1s0.4,1,1,1h20c0.6,0,1-0.4,1-1S32.6,17,32,17z"/>
	<path d="M32,27H12c-0.6,0-1,0.4-1,1s0.4,1,1,1h20c0.6,0,1-0.4,1-1S32.6,27,32,27z"/>
	<path d="M32,32H12c-0.6,0-1,0.4-1,1s0.4,1,1,1h20c0.6,0,1-0.4,1-1S32.6,32,32,32z"/>
	<path d="M22,37H12c-0.6,0-1,0.4-1,1s0.4,1,1,1h10c0.6,0,1-0.4,1-1S22.6,37,22,37z"/>
</g>
</svg>
