<?xml version="1.0" encoding="utf-8"?>
<!-- Generator: Adobe Illustrator 24.1.1, SVG Export Plug-In . SVG Version: 6.00 Build 0)  -->
<svg version="1.1" id="Layer_1" xmlns="http://www.w3.org/2000/svg" xmlns:xlink="http://www.w3.org/1999/xlink" x="0px" y="0px"
	 viewBox="0 0 64 80" style="enable-background:new 0 0 64 80;" xml:space="preserve">
<g>
	<path d="M62,23.3h-4.9v-2.1c0-0.6-0.4-1-1-1h-1.7v-7.2h1.7c0.6,0,1-0.4,1-1V9c0-0.6-0.4-1-1-1H4.9c-2.3,0.1-4.1,2.1-4,4.4V21
		c-0.1,2.3,1.7,4.3,4,4.4h2.6c-0.4,0.7-0.6,1.5-0.6,2.4v8.6c0,0.8,0.2,1.6,0.6,2.4H1.8c-0.6,0-1,0.4-1,1v3c0,0.6,0.4,1,1,1h1.7v7.2
		H1.8c-0.6,0-1,0.4-1,1V55c0,0.6,0.4,1,1,1H42v5c0,0.4,0.2,0.8,0.6,0.9c0.4,0.2,0.8,0.1,1.1-0.2l2.3-2.3l2.3,2.3
		c0.2,0.2,0.4,0.3,0.7,0.3c0.6,0,1-0.4,1-1v-5h3c2.3-0.1,4.1-2.1,4-4.4V43c0-0.8-0.2-1.6-0.6-2.4H62c0.6,0,1-0.4,1-1v-3.1
		c0-0.6-0.4-1-1-1h-1.6v-7.2H62c0.6,0,1-0.4,1-1v-3.1C63,23.8,62.6,23.3,62,23.3z M2.9,21v-8.6c-0.1-1.2,0.8-2.3,2-2.4h50.2v1.1H5.9
		C4.9,11.1,4,11.9,4,13v7.3c0,1.1,0.9,1.9,1.9,1.9h49.2v1.1H4.9C3.7,23.2,2.8,22.2,2.9,21z M6,20.3l-0.1-7.3h46.5v7.2L6,20.3z
		 M2.8,41.7v-1.1H14v1.1H2.8z M58.3,35.6H22V32c0-0.6-0.4-1-1-1h-6c-0.6,0-1,0.4-1,1v3.6h-2l-0.1-7.3h46.4V35.6z M52,43.7l0.1,7.2
		H50V47c0-0.6-0.4-1-1-1h-6c-0.6,0-1,0.4-1,1v3.9H5.6v-7.2H14V46c0,0.4,0.2,0.8,0.6,0.9c0.4,0.2,0.8,0.1,1.1-0.2l2.3-2.3l2.3,2.3
		c0.1,0.1,0.2,0.1,0.3,0.2h0.1h0.2H21c0.1,0,0.2,0,0.3-0.1c0.4-0.1,0.6-0.4,0.7-0.8v-2.3H52z M20,36.6v7l-1.3-1.3
		c-0.4-0.4-1-0.4-1.4,0c0,0,0,0,0,0L16,43.6V33h4V36.6z M2.8,54v-1.1H42V54H2.8z M48,58.6l-1.3-1.3c-0.4-0.4-1-0.4-1.4,0
		c0,0,0,0,0,0L44,58.6V48h4V58.6z M55,43v8.6c0.1,1.2-0.8,2.3-2,2.4c0,0,0,0,0,0h-3v-1.1h2.1c1,0,1.9-0.8,1.9-1.9v-7.4
		c0-1.1-0.9-1.9-1.9-1.9l0,0H22v-1.1h31C54.2,40.7,55.1,41.8,55,43z M61,38.6H22v-1.1h39V38.6z M61,26.4H11.9
		c-1.1,0-1.9,0.9-1.9,1.9l0,0v7.3c0,1.1,0.9,1.9,1.9,1.9H14v1.1h-3.2c-1.2-0.1-2.1-1.2-2-2.4v-8.6c-0.1-1.2,0.8-2.3,2-2.4H61V26.4z"
		/>
</g>
</svg>
