<?xml version="1.0" encoding="utf-8"?>
<!-- Generator: Adobe Illustrator 24.1.1, SVG Export Plug-In . SVG Version: 6.00 Build 0)  -->
<svg version="1.1" id="Layer_1" xmlns="http://www.w3.org/2000/svg" xmlns:xlink="http://www.w3.org/1999/xlink" x="0px" y="0px"
	 viewBox="0 0 100 125" style="enable-background:new 0 0 100 125;" xml:space="preserve">
<path d="M17.2,45c0-1.1,0.9-2,2-2h38c1.1,0,2,0.9,2,2s-0.9,2-2,2h-38C18.1,47,17.2,46.1,17.2,45z M19.2,37h38c1.1,0,2-0.9,2-2
	s-0.9-2-2-2h-38c-1.1,0-2,0.9-2,2S18.1,37,19.2,37z M27.2,27h30c1.1,0,2-0.9,2-2s-0.9-2-2-2h-30c-1.1,0-2,0.9-2,2S26.1,27,27.2,27z
	 M19.2,57h38c1.1,0,2-0.9,2-2s-0.9-2-2-2h-38c-1.1,0-2,0.9-2,2S18.1,57,19.2,57z M92.8,46.3l-4.9,5L71.2,67.9V89c0,3.3-2.7,6-6,6
	h-54c-3.3,0-6-2.7-6-6V11c0-3.3,2.7-6,6-6h54c3.3,0,6,2.7,6,6v37.1l6.8-6.8c0,0,0,0,0,0l4.9-5c1.3-1.3,3.1-2,4.9-2s3.6,0.7,4.9,2
	C95.5,39.1,95.5,43.6,92.8,46.3z M67.2,71.9L56.7,82.4c-0.3,0.3-0.8,0.5-1.2,0.6l-7.8,0.7c-0.1,0-0.1,0-0.2,0c-0.5,0-1-0.2-1.4-0.6
	c-0.4-0.4-0.6-1-0.6-1.6l0.4-4.5H19.2c-1.1,0-2-0.9-2-2s0.9-2,2-2h27.3c0.1-0.2,0.2-0.4,0.4-0.5l5.5-5.5H19.2c-1.1,0-2-0.9-2-2
	s0.9-2,2-2h37.1l10.9-10.9V11c0-1.1-0.9-2-2-2h-54c-1.1,0-2,0.9-2,2v78c0,1.1,0.9,2,2,2h54c1.1,0,2-0.9,2-2V71.9z M51.1,73.9
	l-0.9,0.9l-0.4,4.7l4.7-0.4l0.9-0.9L51.1,73.9z M83.6,49.8l-4.2-4.2L53.9,71.1l4.2,4.2L83.6,49.8z M89.9,39.2
	c-1.1-1.1-3.1-1.1-4.2,0l-3.5,3.5l4.2,4.2l3.5-3.5C91.1,42.3,91.1,40.4,89.9,39.2z"/>
</svg>
