<svg xmlns="http://www.w3.org/2000/svg" viewBox="0 0 24 30" x="0px" y="0px"><title>_</title><path d="M14,3H6A1,1,0,0,0,5,4V20a1,1,0,0,0,1,1H18a1,1,0,0,0,1-1V8Zm0,1.41418L17.58582,8H14ZM18,20H6V4h7V9h5Zm-6-9a3.5,3.5,0,1,1-3.5,3.5A3.504,3.504,0,0,1,12,11m0-1a4.5,4.5,0,1,0,4.5,4.5A4.5,4.5,0,0,0,12,10Zm1.51648,6.15814L11.5,15V12h1v2.41663l1.51648.87548Z"/><text x="0" y="39" fill="#000000" font-size="5px" font-weight="bold" font-family="'Helvetica Neue', Helvetica, Arial-Unicode, Arial, Sans-serif">Created by Sophia Bai</text><text x="0" y="44" fill="#000000" font-size="5px" font-weight="bold" font-family="'Helvetica Neue', Helvetica, Arial-Unicode, Arial, Sans-serif">from the Noun Project</text></svg>