<?xml version="1.0" encoding="utf-8"?>
<!-- Generator: Adobe Illustrator 24.1.1, SVG Export Plug-In . SVG Version: 6.00 Build 0)  -->
<svg version="1.1" id="Layer_1" xmlns="http://www.w3.org/2000/svg" xmlns:xlink="http://www.w3.org/1999/xlink" x="0px" y="0px"
	 viewBox="0 0 100 125" style="enable-background:new 0 0 100 125;" xml:space="preserve">
<g transform="matrix( 1, 0, 0, 1, 0,0) ">
	<g>
		<g id="a">
			<path d="M73,27c-6.4-6.3-14-9.4-23-9.4c-8.9,0-16.5,3.1-22.9,9.4c-6.3,6.4-9.4,14.1-9.4,23c0,9,3.1,16.6,9.4,22.9
				c6.4,6.3,14,9.4,22.9,9.4c8.9,0,16.6-3.1,23-9.4c6.3-6.3,9.4-13.9,9.4-22.9C82.4,41.1,79.3,33.5,73,27 M53,25.3
				c1.2,2.4,2.2,5.5,2.9,9.3C54,35,52.1,35.3,50,35.3c-2,0-4-0.3-6-0.8c0.8-3.8,1.8-6.9,3-9.3c1.1-2.1,2.1-3.2,3-3.2
				C51,22,52,23.1,53,25.3 M43.3,39c2.2,0.5,4.4,0.8,6.7,0.8c2.3,0,4.6-0.3,6.7-0.8c0.4,2.6,0.6,5.5,0.7,8.8H42.7
				C42.7,44.8,43,41.8,43.3,39 M71.2,31.8c3.9,4.7,6.2,10,6.7,16h-16c0-2.9-0.3-6.3-0.8-10C64.8,36.4,68.1,34.4,71.2,31.8
				 M68.1,28.6c-2.3,1.9-4.9,3.5-7.8,4.7c-0.9-4.3-2-7.8-3.5-10.4C60.9,24,64.7,25.9,68.1,28.6 M28.9,31.8c3.1,2.6,6.5,4.6,10.2,6
				c-0.4,3-0.7,6.3-0.8,10h-16C22.7,41.8,24.9,36.4,28.9,31.8 M39.8,33.3c-2.8-1.1-5.4-2.7-7.7-4.7c3.5-2.8,7.3-4.7,11.3-5.7
				C41.9,25.5,40.7,28.9,39.8,33.3 M38.3,52.2c0.2,4.1,0.5,8,1,11.5c-3.5,1.3-6.7,3.1-9.6,5.4c-4.4-4.7-6.9-10.3-7.4-16.9H38.3
				 M33,72.1c2.2-1.6,4.6-3,7.2-4c0.7,3.5,1.8,6.6,3.2,9.1C39.5,76.2,36.1,74.5,33,72.1 M61.8,52.2h16c-0.5,6.4-3,12-7.4,16.9
				c-2.9-2.3-6.1-4.1-9.7-5.4C61.3,60.3,61.7,56.4,61.8,52.2 M57.4,52.2c-0.2,4.2-0.5,7.7-0.9,10.3c-2.3-0.4-4.5-0.6-6.5-0.6
				c-2.1,0-4.3,0.2-6.5,0.6c-0.6-3.2-0.9-6.6-0.9-10.3H57.4 M44.3,66.8c1.9-0.4,3.8-0.7,5.7-0.7c1.8,0,3.7,0.2,5.7,0.7
				C55,70.3,54,73,52.9,75.2C51.8,77,50.9,78,50,78c-0.9,0-1.8-1-2.8-2.8C46.1,73,45.1,70.3,44.3,66.8 M56.8,77.2
				c1.2-2.3,2.3-5.4,3.2-9.1c2.7,1,5.1,2.4,7.2,4C64.1,74.5,60.6,76.2,56.8,77.2z"/>
		</g>
	</g>
</g>
</svg>
