<?xml version="1.0" encoding="utf-8"?>
<!-- Generator: Adobe Illustrator 24.1.1, SVG Export Plug-In . SVG Version: 6.00 Build 0)  -->
<svg version="1.1" id="Layer_1" xmlns="http://www.w3.org/2000/svg" xmlns:xlink="http://www.w3.org/1999/xlink" x="0px" y="0px"
	 viewBox="0 0 48 60" style="enable-background:new 0 0 48 60;" xml:space="preserve">
<g>
	<path d="M41,6h-3V5c0-0.6-0.4-1-1-1s-1,0.4-1,1v1H25V5c0-0.6-0.4-1-1-1s-1,0.4-1,1v1H12V5c0.1-0.5-0.3-0.9-0.8-1
		c-0.1,0-0.1,0-0.2,0c-0.5-0.1-0.9,0.3-1,0.8c0,0.1,0,0.1,0,0.2v1H7C5.4,5.9,4.1,7.2,4,8.8C4,8.9,4,8.9,4,9v28
		c-0.1,1.6,1.2,2.9,2.8,3c0.1,0,0.1,0,0.2,0h10.4c1.8,3.6,6.3,5.1,9.9,3.3c1.4-0.7,2.5-1.9,3.3-3.3H41c1.6,0.1,2.9-1.2,3-2.8
		c0-0.1,0-0.1,0-0.2V9c0.1-1.6-1.2-2.9-2.8-3C41.1,6,41.1,6,41,6z M7,8h3v1c-0.1,0.5,0.3,0.9,0.8,1c0.1,0,0.1,0,0.2,0
		c0.5,0.1,0.9-0.3,1-0.8c0-0.1,0-0.1,0-0.2V8h11v1c0,0.6,0.4,1,1,1s1-0.4,1-1V8h11v1c0,0.6,0.4,1,1,1s1-0.4,1-1V8h3
		c0.5-0.1,0.9,0.3,1,0.8c0,0.1,0,0.1,0,0.2v3H6V9C5.9,8.5,6.3,8.1,6.8,8C6.9,8,6.9,8,7,8z M24,42c-3,0-5.5-2.5-5.5-5.5S21,31,24,31
		s5.5,2.5,5.5,5.5S27,42,24,42z M41,38h-9.7c0.1-0.5,0.2-1,0.2-1.5c0-4.1-3.4-7.5-7.5-7.5s-7.5,3.4-7.5,7.5c0,0.5,0.1,1,0.2,1.5H7
		c-0.5,0.1-0.9-0.3-1-0.8c0-0.1,0-0.1,0-0.2V14h36v23c0.1,0.5-0.3,0.9-0.8,1C41.1,38,41.1,38,41,38z"/>
	<path d="M14,17h-4c-0.5-0.1-0.9,0.3-1,0.8c0,0.1,0,0.1,0,0.2v4c-0.1,0.5,0.3,0.9,0.8,1c0.1,0,0.1,0,0.2,0h4c0.5,0.1,0.9-0.3,1-0.8
		c0-0.1,0-0.1,0-0.2v-4c0.1-0.5-0.3-0.9-0.8-1C14.1,17,14.1,17,14,17z M13,21h-2v-2h2V21z"/>
	<path d="M26,17h-4c-0.5-0.1-0.9,0.3-1,0.8c0,0.1,0,0.1,0,0.2v4c-0.1,0.5,0.3,0.9,0.8,1c0.1,0,0.1,0,0.2,0h4c0.5,0.1,0.9-0.3,1-0.8
		c0-0.1,0-0.1,0-0.2v-4c0.1-0.5-0.3-0.9-0.8-1C26.1,17,26.1,17,26,17z M25,21h-2v-2h2V21z"/>
	<path d="M38,17h-4c-0.5-0.1-0.9,0.3-1,0.8c0,0.1,0,0.1,0,0.2v4c-0.1,0.5,0.3,0.9,0.8,1c0.1,0,0.1,0,0.2,0h4c0.5,0.1,0.9-0.3,1-0.8
		c0-0.1,0-0.1,0-0.2v-4c0.1-0.5-0.3-0.9-0.8-1C38.1,17,38.1,17,38,17z M37,21h-2v-2h2V21z"/>
	<path d="M14,26h-4c-0.5-0.1-0.9,0.3-1,0.8c0,0.1,0,0.1,0,0.2v4c-0.1,0.5,0.3,0.9,0.8,1c0.1,0,0.1,0,0.2,0h4c0.5,0.1,0.9-0.3,1-0.8
		c0-0.1,0-0.1,0-0.2v-4c0.1-0.5-0.3-0.9-0.8-1C14.1,26,14.1,26,14,26z M13,30h-2v-2h2V30z"/>
	<path d="M38,26h-4c-0.5-0.1-0.9,0.3-1,0.8c0,0.1,0,0.1,0,0.2v4c-0.1,0.5,0.3,0.9,0.8,1c0.1,0,0.1,0,0.2,0h4c0.5,0.1,0.9-0.3,1-0.8
		c0-0.1,0-0.1,0-0.2v-4c0.1-0.5-0.3-0.9-0.8-1C38.1,26,38.1,26,38,26z M37,30h-2v-2h2V30z"/>
	<path d="M25,33v4c0,0.3-0.1,0.5-0.3,0.7l-2,2c-0.4,0.4-1,0.4-1.4,0c-0.4-0.4-0.4-1,0-1.4l1.7-1.7V33c0-0.6,0.4-1,1-1S25,32.4,25,33
		z"/>
</g>
</svg>
